<svg width="130" height="69" viewBox="0 0 130 69" fill="none" xmlns="http://www.w3.org/2000/svg">
<g clip-path="url(#clip0_15_1667)">
<path d="M44.8693 0.0513671C45.1417 0.0128501 45.5471 -0.0213872 45.811 0.0171298C47.9636 0.329546 50.111 0.503942 52.1993 1.34169C58.0888 3.70406 60.929 8.10998 64.8793 12.6432C67.1124 15.2067 69.4185 17.6558 71.6419 20.2246C75.3649 24.5257 78.2834 29.7865 85.0267 29.0953C92.2044 28.3603 96.0861 20.4718 92.5262 14.2534C90.2062 10.1995 84.5301 8.49194 80.2419 10.2092C77.1303 11.4545 75.647 13.8062 73.5715 16.1718C73.445 16.3162 72.7467 17.0374 72.6169 17.0149C72.189 16.5901 71.716 16.19 71.3116 15.7438C70.0985 14.4064 68.9605 12.9332 67.7839 11.5647C67.3237 11.0298 66.6566 10.6585 66.4517 9.9267C66.9398 9.3468 67.5404 8.86855 68.0466 8.30792C71.7267 4.23474 73.9233 1.92158 79.5404 0.634472C90.0957 -1.78568 100.228 4.52255 102.805 15.1222C105.039 24.3171 99.9784 33.6981 91.1533 37.3444C90.3435 37.6793 88.1972 38.3811 87.3885 38.5074C86.4725 38.6508 83.7525 38.854 82.8869 38.7331C77.0982 37.9243 73.0417 36.0958 69.0645 31.6717C64.4771 26.5693 60.1771 21.3673 55.6112 16.2232C53.8897 14.2834 51.8947 11.4824 49.4921 10.4584C46.2947 9.09644 41.6826 9.45808 38.9432 11.6739C35.3287 14.598 34.2571 20.1112 36.5332 24.1331C39.22 28.8803 45.397 30.2968 50.1313 27.8596C51.2672 27.2743 53.1603 25.2961 54.0602 24.2946C54.4013 23.9159 56.1807 21.4657 56.5089 21.5214C56.9637 22.097 57.5461 22.5688 58.0288 23.1124C59.2236 24.4572 60.3756 25.9241 61.5565 27.2914C61.8439 27.6253 62.7921 28.2779 62.672 28.7069C62.6151 28.907 61.7667 29.6046 61.5565 29.8486C58.7055 33.1535 56.7449 35.4431 52.4932 37.1668C41.7245 41.5331 29.6922 35.3993 26.4884 24.3171C23.3125 13.3312 31.2078 1.79105 42.4763 0.230043C43.2411 0.124122 44.0101 0.171198 44.8693 0.0502972V0.0513671Z" fill="black"/>
<path d="M42.4817 45.7838C42.6447 45.817 43.6905 46.1797 43.9168 46.277C45.989 47.1683 47.067 49.3541 45.5332 51.2874C45.2393 51.6576 44.5968 51.9294 44.6708 52.4504C44.6816 52.5243 45.6437 52.9768 45.9129 53.2657C48.0538 55.5564 46.6304 58.0942 44.0241 59.0839C42.6919 59.59 41.762 59.2712 40.4492 59.2508C38.2879 59.2166 36.1202 59.2851 33.9601 59.2551V45.7827H42.4817V45.7838ZM37.7119 48.6169V50.9697L37.8728 51.1302H41.0884C41.1324 51.1302 41.851 50.776 41.8864 50.7493C42.3895 50.3662 42.3444 49.2257 41.7813 48.8352C41.1903 48.4265 40.4706 48.6052 39.8045 48.5624C39.4613 48.541 37.8267 48.2521 37.713 48.6169H37.7119ZM37.8728 53.9098L37.7119 54.0703V56.423L37.8728 56.5835H41.6247C41.7266 56.5835 42.664 56.0956 42.7488 55.994C42.9418 55.7629 42.9064 54.7657 42.7391 54.5079C42.6705 54.402 41.6966 53.9098 41.6236 53.9098H37.8718H37.8728Z" fill="black"/>
<path d="M88.4118 45.7839V59.2563H85.5716C85.1318 58.7738 84.6116 58.3544 84.1729 57.8708C82.8483 56.4093 81.6974 54.7659 80.4307 53.2637C80.1057 52.8786 79.4836 52.1296 79.1929 52.8935L79.3055 58.9942L79.1393 59.3633H75.6019L75.5483 45.7839H78.3885C78.6052 46.0279 78.8754 46.2301 79.0846 46.4794C80.6323 48.3207 82.1007 50.2401 83.6356 52.0975C83.9563 52.4859 84.4775 53.0765 84.7661 52.3607L84.8218 46.107C84.8819 46.0418 85.1114 45.7839 85.1415 45.7839H88.4107H88.4118Z" fill="black"/>
<path d="M20.5378 45.5989C22.5532 45.3474 25.092 45.9241 26.6729 47.2262C30.6361 50.4895 29.9164 56.3312 25.4802 58.7631C24.4034 59.3537 23.8939 59.3034 22.7634 59.4746C22.6014 59.4992 22.4856 59.6587 22.3247 59.6779C20.1238 59.9475 17.0808 58.654 15.6801 56.9079C12.162 52.5234 15.2124 46.2612 20.5378 45.5989ZM20.4305 48.6995C19.9822 48.8011 18.8388 49.7769 18.5728 50.161C17.6772 51.4567 17.7619 53.9186 18.6951 55.1843C18.9729 55.5609 19.7666 56.2381 20.216 56.3408C20.6182 56.4318 22.8653 56.4318 23.2675 56.3408C25.1542 55.9129 25.6765 53.2092 25.5017 51.6043C25.3891 50.5783 24.0601 48.9285 23.054 48.7006C22.6754 48.615 20.8113 48.615 20.4316 48.7006L20.4305 48.6995Z" fill="black"/>
<path d="M62.0434 45.7839V48.5636C61.0588 48.7744 55.7227 48.3036 55.284 48.6107C55.0255 48.7925 55.2862 49.4976 55.2947 49.7886C55.3151 50.4124 55.2711 51.0415 55.2905 51.6642H61.1317L61.2926 51.8247V54.4973L61.1317 54.6578H55.2905V59.2018L55.1296 59.3622H51.3777C51.2243 59.2681 51.2297 59.1493 51.2114 58.9931C50.8779 56.1632 51.4753 52.6881 51.2114 49.7886C51.5364 48.723 51.1299 47.2893 51.3251 46.2675C51.3519 46.1274 51.6276 45.7839 51.6984 45.7839H62.0424H62.0434Z" fill="black"/>
<path d="M9.73688 45.7838V54.8182C9.73688 54.8802 9.55776 55.7629 9.517 55.9886C9.14482 58.0547 7.20452 59.4659 5.17305 59.6745C3.25528 59.8714 1.06078 59.3075 0.00106812 57.6213C0.383979 56.805 1.14658 56.2615 1.76654 55.6281C2.60851 56.2679 3.41402 56.8157 4.53916 56.6894C4.7408 56.667 5.39937 56.4487 5.52486 56.3374C5.56776 56.3 6.09225 55.4098 6.09225 55.3531V48.7239L5.93137 48.5634H1.1616V46.1572C1.1616 46.1304 1.51019 45.7827 1.537 45.7827H9.73688V45.7838Z" fill="black"/>
<path d="M119.656 45.7839L122.882 51.0212H123.452C124.171 49.8314 124.817 48.5721 125.566 47.4027C125.752 47.1128 126.571 45.785 126.838 45.785H130L124.988 54.2042L124.855 59.2574H121.21V55.2473C121.21 55.0751 121.016 54.5851 121.075 54.3133C119.482 51.4299 117.517 48.7423 116.065 45.785H119.656V45.7839Z" fill="black"/>
<path d="M113.707 48.5636H109.581L109.42 48.7241V59.2563H105.776V48.7241L105.615 48.5636H101.489V45.7839H113.547L113.707 45.9444V48.5636Z" fill="black"/>
<path d="M70.1897 45.7839L70.136 59.3633H66.5987L66.545 45.7839H70.1897Z" fill="black"/>
<path d="M97.415 59.2563H93.7704V45.7839H97.2541L97.415 45.9444V59.2563Z" fill="black"/>
<path d="M62.6419 63.5947C64.1725 62.2541 66.9934 62.6554 67.9437 64.5427C68.5948 65.8373 67.9941 67.7706 66.7478 68.4918C65.1389 69.4236 62.5486 69.1102 61.8622 67.1875C61.3623 65.7902 61.4986 64.5962 62.643 63.5937L62.6419 63.5947ZM64.3699 64.089C62.6537 64.4785 62.5701 67.4208 64.5715 67.6925C65.1915 67.7771 66.1074 67.5588 66.3852 66.9543C67.0889 65.4254 66.2254 63.6675 64.3699 64.089Z" fill="black"/>
<path d="M56.7374 62.8909C57.4174 62.9658 58.2529 63.3039 58.6627 63.8549C59.0724 64.4059 59.0885 66.0353 58.5812 66.4933C58.2487 66.7928 57.7735 66.5264 57.9977 67.3021C58.1886 67.9623 58.9394 68.1163 59.0424 68.7701C58.5189 69.0033 57.9054 69.1349 57.4281 68.7262C57.1117 68.4555 56.747 67.3385 56.4188 67.2743C56.2247 67.2358 55.3312 67.2369 55.2293 67.377C55.1961 67.9205 55.4149 68.4223 55.0835 68.9402C54.7692 69.0686 53.894 68.983 53.7342 68.6684L53.8983 62.8941C54.8057 62.9658 55.8493 62.7956 56.7385 62.8941L56.7374 62.8909ZM55.3066 64.0828C55.1435 64.1844 55.106 65.9284 55.284 66.0525C56.4167 66.1584 57.6212 66.2226 57.4925 64.7579C57.426 63.995 55.8579 64.0111 55.3055 64.0828H55.3066Z" fill="black"/>
<path d="M82.9984 62.8908C83.1304 62.9122 84.1965 63.3637 84.3027 63.46C84.5976 63.7296 84.9977 64.455 84.9902 64.869C84.9473 67.1458 83.2183 67.3085 81.3306 67.3213C81.0356 67.5267 81.5 68.5517 80.9659 68.8887C80.716 69.046 79.6477 69.0214 79.6831 68.464L79.8365 62.8908C80.8018 62.9988 82.0739 62.7442 82.9984 62.8908ZM81.4056 64.0827C81.1139 64.1779 81.1429 65.8673 81.4432 66.0481C81.7596 66.2385 83.3813 65.8662 83.4307 65.3024C83.524 64.2464 82.1994 63.8227 81.4046 64.0827H81.4056Z" fill="black"/>
<path d="M72.322 62.9025C72.8271 64.2003 71.6087 67.6208 73.6691 67.7075C76.0299 67.8059 74.5561 64.3426 75.1246 62.8971L76.3903 62.9068C76.4836 63.0844 76.5029 63.278 76.5179 63.4749C76.5887 64.4507 76.6176 66.7713 76.2701 67.6208C75.8561 68.633 74.4918 69.077 73.4525 68.9892C73.0266 68.9539 71.8393 68.572 71.5765 68.267C70.9212 67.5063 70.9104 65.619 70.934 64.6507C70.9426 64.2795 70.9383 63.7199 70.963 63.3968C71.0198 62.635 71.7685 62.9271 72.3209 62.9025H72.322Z" fill="black"/>
<path d="M45.4667 67.7749C44.1388 66.017 45.0741 63.4021 47.2268 62.9207C48.0462 62.7377 50.2139 62.9271 50.6344 63.7488C50.7685 64.0109 50.1174 64.4806 49.8696 64.4956C49.565 64.5138 49.0534 64.1179 48.5922 64.0687C47.9958 64.0045 47.1388 64.0687 46.7785 64.6122C46.6615 64.7888 46.3012 65.527 46.2829 65.726C46.2304 66.2802 46.7624 67.2924 47.2515 67.5449C48.0173 67.9397 48.4645 67.7118 49.2422 67.4978C49.3838 67.2999 49.2325 66.3872 49.2915 66.0502C49.3902 65.4821 50.5979 65.7645 50.6387 66.0416L50.5185 68.236C49.2025 69.4054 46.5554 69.2182 45.4656 67.7749H45.4667Z" fill="black"/>
</g>
<defs>
<clipPath id="clip0_15_1667">
<rect width="130" height="69" fill="white"/>
</clipPath>
</defs>
</svg>
