<svg viewBox="0 0 148 23" fill="currentColor" xmlns="http://www.w3.org/2000/svg"><path d="M11.323.03c.161-.023.402-.043.558-.02 1.277.185 2.55.289 3.79.786 3.493 1.401 5.178 4.015 7.52 6.704 1.325 1.521 2.693 2.974 4.012 4.498 2.208 2.552 3.94 5.673 7.94 5.263 4.257-.436 6.56-5.116 4.448-8.805-1.376-2.405-4.743-3.418-7.287-2.4-1.845.74-2.725 2.134-3.956 3.538-.075.085-.49.513-.567.5-.253-.252-.534-.49-.774-.754-.72-.794-1.394-1.668-2.092-2.48-.273-.317-.669-.537-.79-.971.289-.344.645-.628.945-.96 2.183-2.417 3.486-3.79 6.818-4.553 6.261-1.435 12.271 2.307 13.8 8.595 1.325 5.455-1.677 11.02-6.912 13.183-.48.199-1.753.615-2.233.69-.543.085-2.156.206-2.67.134-3.433-.48-5.84-1.565-8.199-4.189-2.72-3.027-5.271-6.113-7.98-9.165-1.02-1.15-2.204-2.812-3.63-3.42-1.896-.808-4.632-.593-6.256.721-2.144 1.735-2.78 5.006-1.43 7.392 1.594 2.816 5.258 3.656 8.066 2.21.674-.347 1.797-1.52 2.33-2.115.203-.224 1.258-1.678 1.453-1.645.27.342.615.622.901.944.71.798 1.392 1.668 2.093 2.48.17.197.733.585.662.84-.034.118-.537.532-.662.676-1.691 1.961-2.854 3.32-5.376 4.342C9.457 24.639 2.32 21 .42 14.426-1.464 7.909 3.22 1.062 9.903.136c.454-.063.91-.034 1.42-.106m74.74 4.142c.116.024.856.282 1.016.35 1.466.634 2.23 2.186 1.144 3.559-.208.263-.663.456-.61.826.007.052.688.373.878.579 1.516 1.626.508 3.429-1.336 4.131-.943.36-1.601.133-2.53.119-1.53-.024-3.064.024-4.593.003V4.172zm-3.375 2.012v1.671l.114.114h2.275c.031 0 .54-.251.565-.27.356-.272.324-1.082-.075-1.36-.418-.29-.927-.163-1.398-.193-.243-.016-1.4-.22-1.48.038zm.114 3.759-.114.114v1.67l.114.115h2.655c.072 0 .735-.347.795-.419.137-.164.112-.872-.007-1.055-.048-.075-.737-.425-.79-.425zm35.767-5.771v9.568h-2.01c-.312-.343-.68-.64-.99-.984-.938-1.038-1.752-2.205-2.649-3.272-.23-.273-.67-.805-.875-.263l.079 4.333-.117.262h-2.504l-.038-9.644h2.01c.154.174.345.317.493.494 1.095 1.308 2.134 2.67 3.221 3.99.226.276.595.695.8.187l.039-4.441c.043-.047.205-.23.226-.23zM70.534 4.04c1.426-.178 3.223.232 4.341 1.157 2.805 2.317 2.296 6.465-.844 8.192-.762.42-1.122.384-1.922.506-.115.017-.197.13-.31.144-1.558.191-3.712-.727-4.703-1.967-2.49-3.114-.331-7.56 3.438-8.031m-.076 2.203c-.317.072-1.127.765-1.315 1.038-.634.92-.574 2.668.087 3.567.196.267.758.748 1.076.821.285.065 1.875.065 2.16 0 1.335-.304 1.704-2.224 1.58-3.363-.08-.729-1.02-1.9-1.732-2.062-.267-.061-1.587-.061-1.855 0zm29.449-2.072v1.974c-.697.15-4.473-.184-4.784.034-.183.129.002.63.008.836.014.443-.017.89-.003 1.332h4.134l.114.114v1.898l-.114.114h-4.134v3.227l-.114.114H92.36c-.109-.067-.105-.151-.118-.262-.236-2.01.187-4.478 0-6.537.23-.756-.058-1.775.08-2.5.02-.1.215-.344.265-.344zm-37.017 0v6.416c0 .044-.127.671-.156.831-.263 1.467-1.636 2.47-3.074 2.618-1.357.14-2.91-.26-3.66-1.458.271-.58.81-.966 1.25-1.416.595.455 1.165.844 1.962.754.142-.016.608-.171.697-.25.03-.027.402-.659.402-.699V6.26l-.114-.114H56.82V4.438c0-.02.247-.266.266-.266zm77.789 0 2.283 3.72h.403c.509-.845.966-1.74 1.496-2.57.132-.206.712-1.149.901-1.149h2.237l-3.547 5.979-.094 3.589h-2.579v-2.848c0-.123-.138-.47-.096-.664-1.127-2.047-2.518-3.956-3.545-6.056zm-4.21 1.973h-2.92l-.114.114v7.48h-2.579V6.26l-.114-.114h-2.92V4.172h8.533l.114.114zm-30.797-1.974-.038 9.644h-2.503l-.038-9.644zm19.267 9.568h-2.579V4.172h2.465l.114.114zm-24.609 3.08c1.084-.951 3.08-.666 3.752.674.461.92.036 2.292-.846 2.804-1.138.662-2.972.44-3.457-.926-.354-.992-.258-1.84.552-2.552zm1.223.352c-1.214.276-1.273 2.366.143 2.559.439.06 1.087-.095 1.284-.525.497-1.085-.114-2.334-1.427-2.034m-5.401-.852c.481.054 1.072.294 1.362.685s.302 1.549-.057 1.874c-.236.213-.572.023-.413.574.135.47.666.579.74 1.043-.371.165-.806.259-1.143-.031-.224-.193-.482-.986-.715-1.032-.137-.027-.77-.026-.841.073-.024.386.13.743-.104 1.11-.222.092-.841.03-.954-.192l.116-4.101c.642.05 1.38-.07 2.01 0zm-1.013.847c-.115.072-.142 1.31-.016 1.399.802.075 1.654.12 1.563-.92-.047-.541-1.157-.53-1.548-.479zm19.598-.847c.093.016.847.337.923.405.208.191.492.707.486 1-.03 1.617-1.254 1.733-2.59 1.742-.208.146.12.874-.258 1.113-.177.112-.933.095-.908-.301l.109-3.958c.683.077 1.583-.104 2.238 0m-1.128.847c-.206.068-.186 1.268.027 1.396.224.135 1.372-.13 1.407-.53.066-.75-.872-1.05-1.434-.866m-6.428-.838c.357.92-.505 3.35.953 3.411 1.671.07.628-2.39 1.03-3.416l.896.007a1 1 0 0 1 .09.404c.051.692.071 2.34-.175 2.944-.293.719-1.258 1.034-1.994.972-.301-.026-1.142-.297-1.328-.513-.463-.54-.471-1.88-.454-2.568.006-.264.003-.661.02-.89.04-.542.57-.334.961-.352zm-19.005 3.46c-.94-1.25-.278-3.106 1.245-3.448.58-.13 2.114.005 2.412.588.095.186-.366.52-.541.53-.216.013-.578-.268-.904-.303-.422-.045-1.029 0-1.284.386-.083.126-.338.65-.35.791-.038.394.339 1.113.685 1.292.542.28.858.118 1.409-.034.1-.14-.007-.788.034-1.027.07-.404.925-.203.954-.007l-.085 1.559c-.931.83-2.805.697-3.576-.328" /></svg>