<svg width="79" height="39" viewBox="0 0 79 39" fill="none" xmlns="http://www.w3.org/2000/svg">
<path d="M19.8693 0.0513671C20.1417 0.0128501 20.5471 -0.0213872 20.811 0.0171298C22.9636 0.329546 25.111 0.503942 27.1993 1.34169C33.0888 3.70406 35.929 8.10998 39.8793 12.6432C42.1124 15.2067 44.4185 17.6558 46.6419 20.2246C50.3649 24.5257 53.2834 29.7865 60.0267 29.0953C67.2044 28.3603 71.0861 20.4718 67.5262 14.2534C65.2062 10.1995 59.5301 8.49194 55.2419 10.2092C52.1303 11.4545 50.647 13.8062 48.5715 16.1718C48.445 16.3162 47.7467 17.0374 47.6169 17.0149C47.189 16.5901 46.716 16.19 46.3116 15.7438C45.0985 14.4064 43.9605 12.9332 42.7839 11.5647C42.3237 11.0298 41.6566 10.6585 41.4517 9.9267C41.9398 9.3468 42.5404 8.86855 43.0466 8.30792C46.7267 4.23474 48.9233 1.92158 54.5404 0.634472C65.0957 -1.78568 75.2284 4.52255 77.8047 15.1222C80.0389 24.3171 74.9784 33.6981 66.1533 37.3444C65.3435 37.6793 63.1972 38.3811 62.3885 38.5074C61.4725 38.6508 58.7525 38.854 57.8869 38.7331C52.0982 37.9243 48.0417 36.0958 44.0645 31.6717C39.4771 26.5693 35.1771 21.3673 30.6112 16.2232C28.8897 14.2834 26.8947 11.4824 24.4921 10.4584C21.2947 9.09644 16.6826 9.45808 13.9432 11.6739C10.3287 14.598 9.25714 20.1112 11.5332 24.1331C14.22 28.8803 20.397 30.2968 25.1313 27.8596C26.2672 27.2743 28.1603 25.2961 29.0602 24.2946C29.4013 23.9159 31.1807 21.4657 31.5089 21.5214C31.9637 22.097 32.5461 22.5688 33.0288 23.1124C34.2236 24.4572 35.3756 25.9241 36.5565 27.2914C36.8439 27.6253 37.7921 28.2779 37.672 28.7069C37.6151 28.907 36.7667 29.6046 36.5565 29.8486C33.7055 33.1535 31.7449 35.4431 27.4932 37.1668C16.7245 41.5331 4.69224 35.3993 1.48844 24.3171C-1.68747 13.3312 6.2078 1.79105 17.4763 0.230043C18.2411 0.124122 19.0101 0.171198 19.8693 0.0502972V0.0513671Z" fill="black"/>
</svg>
