<svg width="25" height="24" viewBox="0 0 25 24" fill="currentColor" xmlns="http://www.w3.org/2000/svg">
<mask id="mask0_44_4525" style="mask-type:alpha" maskUnits="userSpaceOnUse" x="0" y="0" width="25" height="24">
<rect x="0.311279" width="24" height="24" />
</mask>
<g mask="url(#mask0_44_4525)">
<path d="M12.3113 4V2.5H21.8113V4H12.3113ZM12.3113 7.69225V6.19225H21.8113V7.69225H12.3113ZM12.3113 11.3845V9.8845H21.8113V11.3845H12.3113ZM18.7515 21.5C16.867 21.5 14.9738 21.0618 13.0718 20.1855C11.1699 19.3092 9.42253 18.073 7.82953 16.477C6.2367 14.8808 5.00211 13.1333 4.12578 11.2345C3.24945 9.33583 2.81128 7.44425 2.81128 5.55975C2.81128 5.25692 2.91128 5.00458 3.11128 4.80275C3.31128 4.60092 3.56128 4.5 3.86128 4.5H7.12278C7.37528 4.5 7.59803 4.58242 7.79103 4.74725C7.98403 4.91192 8.10678 5.11542 8.15928 5.35775L8.73253 8.3C8.7722 8.573 8.76386 8.80758 8.70753 9.00375C8.65103 9.19992 8.5497 9.36467 8.40353 9.498L6.09403 11.7463C6.4657 12.4269 6.89036 13.0708 7.36803 13.678C7.84553 14.285 8.36253 14.8648 8.91903 15.4173C9.4677 15.9661 10.051 16.4757 10.669 16.9462C11.287 17.4167 11.9544 17.8546 12.671 18.2598L14.915 15.9962C15.0715 15.8334 15.261 15.7193 15.4835 15.6538C15.7059 15.5884 15.9369 15.5724 16.1768 15.6058L18.9535 16.1712C19.206 16.2379 19.4121 16.3667 19.5718 16.5577C19.7314 16.7487 19.8113 16.9654 19.8113 17.2078V20.45C19.8113 20.75 19.7104 21 19.5085 21.2C19.3067 21.4 19.0544 21.5 18.7515 21.5ZM5.38428 10.327L7.16903 8.61925C7.20103 8.59358 7.22186 8.55833 7.23153 8.5135C7.2412 8.46867 7.23961 8.427 7.22678 8.3885L6.79203 6.15375C6.7792 6.10258 6.75678 6.06417 6.72478 6.0385C6.69278 6.01283 6.65111 6 6.59978 6H4.46128C4.42278 6 4.3907 6.01283 4.36503 6.0385C4.33953 6.06417 4.32678 6.09625 4.32678 6.13475C4.37795 6.81808 4.48978 7.51225 4.66228 8.21725C4.83461 8.92242 5.07528 9.62567 5.38428 10.327ZM14.0843 18.9693C14.7471 19.2783 15.4384 19.5145 16.1583 19.678C16.8783 19.8413 17.551 19.9384 18.1765 19.9693C18.215 19.9693 18.2471 19.9564 18.2728 19.9307C18.2984 19.9051 18.3113 19.873 18.3113 19.8345V17.7308C18.3113 17.6794 18.2984 17.6377 18.2728 17.6058C18.2471 17.5738 18.2087 17.5513 18.1575 17.5385L16.0575 17.1115C16.019 17.0987 15.9854 17.0971 15.9565 17.1068C15.9277 17.1164 15.8972 17.1373 15.865 17.1693L14.0843 18.9693Z" />
</g>
</svg>
