<svg width="40" height="40" viewBox="0 0 40 40" fill="none" xmlns="http://www.w3.org/2000/svg">
<mask id="mask0_46_364" style="mask-type:alpha" maskUnits="userSpaceOnUse" x="0" y="0" width="40" height="40">
<rect width="40" height="40" fill="#D9D9D9"/>
</mask>
<g mask="url(#mask0_46_364)">
<path d="M20.0003 27.8847C20.3817 27.8847 20.7014 27.7556 20.9595 27.4976C21.2175 27.2395 21.3466 26.9198 21.3466 26.5384C21.3466 26.157 21.2175 25.8373 20.9595 25.5792C20.7014 25.3215 20.3817 25.1926 20.0003 25.1926C19.6189 25.1926 19.2992 25.3215 19.0412 25.5792C18.7831 25.8373 18.6541 26.157 18.6541 26.5384C18.6541 26.9198 18.7831 27.2395 19.0412 27.4976C19.2992 27.7556 19.6189 27.8847 20.0003 27.8847ZM18.7503 21.7951H21.2503V11.7951H18.7503V21.7951ZM20.0032 35.8334C17.8132 35.8334 15.7548 35.4179 13.8278 34.5867C11.9009 33.7556 10.2248 32.6277 8.79949 31.203C7.37421 29.7783 6.24574 28.1029 5.41408 26.1767C4.58269 24.2506 4.16699 22.1927 4.16699 20.003C4.16699 17.813 4.58255 15.7545 5.41366 13.8276C6.24477 11.9006 7.37269 10.2245 8.79741 8.79925C10.2221 7.37397 11.8975 6.2455 13.8237 5.41383C15.7498 4.58244 17.8077 4.16675 19.9974 4.16675C22.1874 4.16675 24.2459 4.5823 26.1728 5.41341C28.0998 6.24453 29.7759 7.37244 31.2012 8.79716C32.6264 10.2219 33.7549 11.8973 34.5866 13.8234C35.418 15.7495 35.8337 17.8074 35.8337 19.9972C35.8337 22.1872 35.4181 24.2456 34.587 26.1726C33.7559 28.0995 32.628 29.7756 31.2032 31.2009C29.7785 32.6262 28.1031 33.7547 26.177 34.5863C24.2509 35.4177 22.193 35.8334 20.0032 35.8334ZM20.0003 33.3334C23.7225 33.3334 26.8753 32.0417 29.4587 29.4584C32.042 26.8751 33.3337 23.7223 33.3337 20.0001C33.3337 16.2779 32.042 13.1251 29.4587 10.5417C26.8753 7.95841 23.7225 6.66675 20.0003 6.66675C16.2781 6.66675 13.1253 7.95841 10.542 10.5417C7.95866 13.1251 6.66699 16.2779 6.66699 20.0001C6.66699 23.7223 7.95866 26.8751 10.542 29.4584C13.1253 32.0417 16.2781 33.3334 20.0003 33.3334Z" fill="#242429"/>
</g>
</svg>
