<svg width="25" height="24" viewBox="0 0 25 24" fill="currentColor" xmlns="http://www.w3.org/2000/svg">
<mask id="mask0_44_4507" style="mask-type:alpha" maskUnits="userSpaceOnUse" x="0" y="0" width="25" height="24">
<rect x="0.688721" width="24" height="24" />
</mask>
<g mask="url(#mask0_44_4507)">
<path d="M18.6887 20.6443L17.635 19.6L19.46 17.75H14.9387V16.25H19.46L17.635 14.4L18.6887 13.3558L22.333 17L18.6887 20.6443ZM3.93872 20.3943V6.05775C3.93872 5.55908 4.1153 5.13308 4.46847 4.77975C4.8218 4.42658 5.2478 4.25 5.74647 4.25H17.631C18.1296 4.25 18.5556 4.42658 18.909 4.77975C19.2621 5.13308 19.4387 5.55908 19.4387 6.05775V11.0462C19.3106 11.0257 19.1856 11.0129 19.0637 11.0078C18.9419 11.0026 18.8169 11 18.6887 11C18.5606 11 18.4356 11.0026 18.3137 11.0078C18.1919 11.0129 18.0669 11.0257 17.9387 11.0462V6.05775C17.9387 5.96792 17.9099 5.89417 17.8522 5.8365C17.7946 5.77883 17.7208 5.75 17.631 5.75H5.74647C5.65664 5.75 5.58289 5.77883 5.52522 5.8365C5.46755 5.89417 5.43872 5.96792 5.43872 6.05775V16.25H12.735C12.7145 16.3782 12.7016 16.5032 12.6965 16.625C12.6913 16.7468 12.6887 16.8718 12.6887 17C12.6887 17.1282 12.6913 17.2532 12.6965 17.375C12.7016 17.4968 12.7145 17.6218 12.735 17.75H6.58297L3.93872 20.3943ZM7.74647 9.75H15.631V8.25H7.74647V9.75ZM7.74647 13.75H12.631V12.25H7.74647V13.75Z" />
</g>
</svg>
