<svg width="24" height="24" viewBox="0 0 24 24" fill="none" xmlns="http://www.w3.org/2000/svg">
<mask id="mask0_46_354" style="mask-type:alpha" maskUnits="userSpaceOnUse" x="0" y="0" width="24" height="24">
<rect width="24" height="24" fill="#D9D9D9"/>
</mask>
<g mask="url(#mask0_46_354)">
<path d="M11.9997 22.4231C11.5139 22.4231 11.1007 22.2529 10.7602 21.9126C10.4199 21.5723 10.2497 21.1591 10.2497 20.6731C10.2497 20.1873 10.4199 19.7742 10.7602 19.4338C11.1007 19.0933 11.5139 18.9231 11.9997 18.9231C12.4856 18.9231 12.8987 19.0933 13.2392 19.4338C13.5796 19.7742 13.7497 20.1873 13.7497 20.6731C13.7497 21.1591 13.5796 21.5723 13.2392 21.9126C12.8987 22.2529 12.4856 22.4231 11.9997 22.4231ZM6.11523 4.9231C5.62923 4.9231 5.21607 4.75293 4.87573 4.4126C4.5354 4.07226 4.36523 3.6591 4.36523 3.1731C4.36523 2.68726 4.5354 2.27418 4.87573 1.93385C5.21607 1.59335 5.62923 1.4231 6.11523 1.4231C6.60107 1.4231 7.01415 1.59335 7.35448 1.93385C7.69482 2.27418 7.86498 2.68726 7.86498 3.1731C7.86498 3.6591 7.69482 4.07226 7.35448 4.4126C7.01415 4.75293 6.60107 4.9231 6.11523 4.9231ZM6.11523 10.8078C5.62923 10.8078 5.21607 10.6376 4.87573 10.2971C4.5354 9.95676 4.36523 9.54368 4.36523 9.05785C4.36523 8.57185 4.5354 8.15868 4.87573 7.81835C5.21607 7.47801 5.62923 7.30785 6.11523 7.30785C6.60107 7.30785 7.01415 7.47801 7.35448 7.81835C7.69482 8.15868 7.86498 8.57185 7.86498 9.05785C7.86498 9.54368 7.69482 9.95676 7.35448 10.2971C7.01415 10.6376 6.60107 10.8078 6.11523 10.8078ZM6.11523 16.6923C5.62923 16.6923 5.21607 16.5222 4.87573 16.1818C4.5354 15.8415 4.36523 15.4283 4.36523 14.9423C4.36523 14.4565 4.5354 14.0434 4.87573 13.7031C5.21607 13.3626 5.62923 13.1923 6.11523 13.1923C6.60107 13.1923 7.01415 13.3626 7.35448 13.7031C7.69482 14.0434 7.86498 14.4565 7.86498 14.9423C7.86498 15.4283 7.69482 15.8415 7.35448 16.1818C7.01415 16.5222 6.60107 16.6923 6.11523 16.6923ZM17.8842 4.9231C17.3984 4.9231 16.9853 4.75293 16.645 4.4126C16.3047 4.07226 16.1345 3.6591 16.1345 3.1731C16.1345 2.68726 16.3047 2.27418 16.645 1.93385C16.9853 1.59335 17.3984 1.4231 17.8842 1.4231C18.3702 1.4231 18.7834 1.59335 19.1237 1.93385C19.4641 2.27418 19.6342 2.68726 19.6342 3.1731C19.6342 3.6591 19.4641 4.07226 19.1237 4.4126C18.7834 4.75293 18.3702 4.9231 17.8842 4.9231ZM11.9997 16.6923C11.5139 16.6923 11.1007 16.5222 10.7602 16.1818C10.4199 15.8415 10.2497 15.4283 10.2497 14.9423C10.2497 14.4565 10.4199 14.0434 10.7602 13.7031C11.1007 13.3626 11.5139 13.1923 11.9997 13.1923C12.4856 13.1923 12.8987 13.3626 13.2392 13.7031C13.5796 14.0434 13.7497 14.4565 13.7497 14.9423C13.7497 15.4283 13.5796 15.8415 13.2392 16.1818C12.8987 16.5222 12.4856 16.6923 11.9997 16.6923ZM17.8842 16.6923C17.3984 16.6923 16.9853 16.5222 16.645 16.1818C16.3047 15.8415 16.1345 15.4283 16.1345 14.9423C16.1345 14.4565 16.3047 14.0434 16.645 13.7031C16.9853 13.3626 17.3984 13.1923 17.8842 13.1923C18.3702 13.1923 18.7834 13.3626 19.1237 13.7031C19.4641 14.0434 19.6342 14.4565 19.6342 14.9423C19.6342 15.4283 19.4641 15.8415 19.1237 16.1818C18.7834 16.5222 18.3702 16.6923 17.8842 16.6923ZM17.8842 10.8078C17.3984 10.8078 16.9853 10.6376 16.645 10.2971C16.3047 9.95676 16.1345 9.54368 16.1345 9.05785C16.1345 8.57185 16.3047 8.15868 16.645 7.81835C16.9853 7.47801 17.3984 7.30785 17.8842 7.30785C18.3702 7.30785 18.7834 7.47801 19.1237 7.81835C19.4641 8.15868 19.6342 8.57185 19.6342 9.05785C19.6342 9.54368 19.4641 9.95676 19.1237 10.2971C18.7834 10.6376 18.3702 10.8078 17.8842 10.8078ZM11.9997 10.8078C11.5139 10.8078 11.1007 10.6376 10.7602 10.2971C10.4199 9.95676 10.2497 9.54368 10.2497 9.05785C10.2497 8.57185 10.4199 8.15868 10.7602 7.81835C11.1007 7.47801 11.5139 7.30785 11.9997 7.30785C12.4856 7.30785 12.8987 7.47801 13.2392 7.81835C13.5796 8.15868 13.7497 8.57185 13.7497 9.05785C13.7497 9.54368 13.5796 9.95676 13.2392 10.2971C12.8987 10.6376 12.4856 10.8078 11.9997 10.8078ZM11.9997 4.9231C11.5139 4.9231 11.1007 4.75293 10.7602 4.4126C10.4199 4.07226 10.2497 3.6591 10.2497 3.1731C10.2497 2.68726 10.4199 2.27418 10.7602 1.93385C11.1007 1.59335 11.5139 1.4231 11.9997 1.4231C12.4856 1.4231 12.8987 1.59335 13.2392 1.93385C13.5796 2.27418 13.7497 2.68726 13.7497 3.1731C13.7497 3.6591 13.5796 4.07226 13.2392 4.4126C12.8987 4.75293 12.4856 4.9231 11.9997 4.9231Z" fill="#242429"/>
</g>
</svg>
