<svg width="33" height="32" viewBox="0 0 33 32" fill="none" xmlns="http://www.w3.org/2000/svg">
<path d="M16.8086 0C12.5651 0 8.49547 1.68571 5.49488 4.68629C2.4943 7.68687 0.808594 11.7565 0.808594 16C0.808594 20.2435 2.4943 24.3131 5.49488 27.3137C8.49547 30.3143 12.5651 32 16.8086 32C21.0521 32 25.1217 30.3143 28.1223 27.3137C31.1229 24.3131 32.8086 20.2435 32.8086 16C32.8086 11.7565 31.1229 7.68687 28.1223 4.68629C25.1217 1.68571 21.0521 0 16.8086 0Z" fill="#039BE5"/>
<path d="M18.973 20.2407H23.1136L23.7637 16.0344H18.9721V13.7354C18.9721 11.988 19.5431 10.4386 21.1776 10.4386H23.8041V6.76783C23.3427 6.70551 22.3667 6.56909 20.5224 6.56909C16.6715 6.56909 14.4138 8.60278 14.4138 13.236V16.0344H10.4551V20.2407H14.4138V31.8019C15.1978 31.9198 15.9919 31.9998 16.8071 31.9998C17.5439 31.9998 18.2631 31.9325 18.973 31.8365V20.2407Z" fill="white"/>
</svg>
