<svg width="37" height="28" viewBox="0 0 37 28" fill="none" xmlns="http://www.w3.org/2000/svg">
<path d="M36.4416 7.17456L32.1558 9.58081L27.8701 13.7371V27.9995H33.8701C35.2904 27.9995 36.4416 26.8244 36.4416 25.3745V7.17456Z" fill="#4CAF50"/>
<path d="M0.44043 7.17456L3.53815 8.67081L9.01187 13.7371V27.9995H3.01186C1.59157 27.9995 0.44043 26.8244 0.44043 25.3745V7.17456Z" fill="#1E88E5"/>
<path d="M27.8715 2.79956L18.443 10.0183L9.01437 2.79956L8.15723 7.87456L9.01437 13.7371L18.443 20.9558L27.8715 13.7371L28.7287 7.87456L27.8715 2.79956Z" fill="#E53935"/>
<path d="M0.44043 3.76075V7.175L9.01187 13.7375V2.8L6.33415 0.751625C5.69644 0.263375 4.92158 0 4.12444 0C2.08957 0 0.44043 1.6835 0.44043 3.76075Z" fill="#C62828"/>
<path d="M36.4416 3.76075V7.175L27.8701 13.7375V2.8L30.5478 0.751625C31.1856 0.263375 31.9604 0 32.7576 0C34.7924 0 36.4416 1.6835 36.4416 3.76075Z" fill="#FBC02D"/>
</svg>
