<svg width="24" height="24" viewBox="0 0 24 24" fill="none" xmlns="http://www.w3.org/2000/svg">
<mask id="mask0_44_4551" style="mask-type:alpha" maskUnits="userSpaceOnUse" x="0" y="0" width="24" height="24">
<rect width="24" height="24" fill="#D9D9D9"/>
</mask>
<g mask="url(#mask0_44_4551)">
<path d="M12 21.5C9.54905 21.5 7.42222 20.6913 5.61955 19.074C3.81688 17.4567 2.79372 15.432 2.55005 13H4.07505C4.31872 15.0167 5.19563 16.6875 6.7058 18.0125C8.21613 19.3375 9.98088 20 12 20C14.2334 20 16.125 19.225 17.675 17.675C19.225 16.125 20 14.2333 20 12C20 9.76667 19.225 7.875 17.675 6.325C16.125 4.775 14.2334 4 12 4C10.4962 4 9.11255 4.38625 7.84905 5.15875C6.58555 5.93108 5.61155 6.99033 4.92705 8.3365H7.88455V9.8365H2.7578C3.2603 7.68267 4.37213 5.9215 6.0933 4.553C7.81447 3.18433 9.78338 2.5 12 2.5C13.3142 2.5 14.5492 2.74933 15.705 3.248C16.8609 3.74667 17.8663 4.42342 18.7213 5.27825C19.5763 6.13308 20.2531 7.13833 20.7518 8.294C21.2506 9.44967 21.5 10.6844 21.5 11.9983C21.5 13.3123 21.2506 14.5473 20.7518 15.7035C20.2531 16.8597 19.5763 17.8653 18.7213 18.7205C17.8663 19.5757 16.8609 20.2528 15.705 20.7518C14.5492 21.2506 13.3142 21.5 12 21.5ZM14.723 15.777L11.25 12.3025V7.3655H12.75V11.6962L15.7673 14.723L14.723 15.777Z" fill="#242429"/>
</g>
</svg>
