<svg width="32" height="32" viewBox="0 0 32 32" fill="none" xmlns="http://www.w3.org/2000/svg">
<path d="M31.7069 6.64888C31.3514 6.87999 30.8447 7.09332 30.6314 7.33332C30.5514 7.41332 30.5069 7.50221 30.5247 7.5911V8.50665L30.258 9.40443L29.9914 10.2933L29.698 11.2711L29.0936 13.2711L28.5069 15.2444L28.0625 16.7289C28.0625 16.96 28.0536 17.1911 28.0358 17.4133C27.9736 18.2666 27.7958 19.0844 27.5114 19.8489C27.3425 20.32 27.1381 20.7733 26.8892 21.2C26.8003 21.3689 26.6936 21.5377 26.5869 21.6977C26.2314 22.2577 25.8047 22.7733 25.3336 23.2266C24.9692 23.5911 24.5692 23.9288 24.1336 24.2133C24.1336 24.2133 24.1336 24.2133 24.1247 24.2133C24.0536 24.2755 23.9736 24.3288 23.8847 24.3733C23.6092 24.56 23.3158 24.72 23.0136 24.8622C22.8092 24.9688 22.6047 25.0577 22.3914 25.1377C22.347 25.1644 22.2936 25.1822 22.2492 25.2C21.7425 25.44 21.1558 25.6 20.5692 25.68C20.5336 25.6888 20.507 25.6888 20.4714 25.6977C20.1159 25.76 19.7692 25.8133 19.4136 25.84C19.2536 25.8577 19.0847 25.8666 18.9247 25.8666L18.2936 25.8311L15.2536 25.6711C15.2536 25.6622 15.2448 25.6711 15.2448 25.6711L13.7159 25.5911C13.6003 25.5911 13.4759 25.5911 13.3603 25.5822C12.8803 25.5644 12.4181 25.5111 11.9559 25.4133C11.947 25.4133 11.947 25.4133 11.947 25.4133C11.1025 25.2533 10.2937 24.9688 9.53811 24.5866C9.12033 24.3733 8.71144 24.1333 8.32922 23.8577C8.16922 23.7422 8.01811 23.6177 7.867 23.4844C7.44034 23.1288 7.05812 22.7466 6.70256 22.3555C6.64923 22.3022 6.60479 22.2488 6.56034 22.1955C6.50701 22.1422 6.45367 22.08 6.40923 22.0266C6.07145 21.6 5.78701 21.1644 5.5559 20.7022C5.34257 20.2933 5.17368 19.8577 5.04035 19.3777C4.98701 19.2089 4.94257 19.0489 4.90701 18.8711C4.89812 18.8622 4.88924 18.8444 4.88924 18.8266C4.80035 18.4622 4.72035 18.08 4.6759 17.6977C4.62257 17.4044 4.5959 17.1111 4.5959 16.8089C4.57813 16.6933 4.57812 16.5689 4.57812 16.4533L6.2759 13.8311L7.93811 11.2711L8.69367 10.1066L9.37811 9.05776L9.60922 8.69332V7.77776C9.627 7.57332 9.63589 7.35999 9.627 7.16443C9.61811 6.54221 9.49367 5.93777 9.28922 5.35999C9.09367 4.74666 8.81811 4.16888 8.53367 3.63555C8.19589 3.02222 7.84034 2.47111 7.547 1.97333C7.11145 1.24444 6.80923 0.648888 6.88923 0.231111C7.52923 0.0800001 8.20478 0 8.88922 0H23.1114C26.8269 0 30.0269 2.31111 31.3514 5.56444C31.4936 5.9111 31.618 6.27554 31.7069 6.64888Z" fill="#304FFE"/>
<path d="M32.0004 8.88887V9.12887L30.7738 9.83998L29.9916 10.2933L29.1293 10.7911L27.4049 11.7955L25.716 12.7733L23.9916 13.7689L23.3071 14.1689C23.3071 14.5955 23.2005 14.9866 23.0049 15.3422C22.7294 15.8578 22.2671 16.2844 21.6805 16.6489C21.0849 17.0133 20.356 17.3066 19.5383 17.52C19.5383 17.52 19.5383 17.5111 19.5294 17.52C16.3649 18.3377 12.0449 17.9644 9.94718 16.4C9.36051 15.9644 8.95162 15.4311 8.77385 14.8178C8.72051 14.6133 8.69385 14.3911 8.69385 14.1689V7.77776C8.70273 7.64443 8.61385 7.5111 8.45385 7.37777C7.97385 6.99554 6.84496 6.6311 5.58275 6.26666C4.59608 5.9911 3.53831 5.71555 2.64942 5.44888C1.9472 5.23555 1.35165 5.02221 0.996094 4.81777C1.15609 4.50666 1.34276 4.19555 1.53831 3.90222C2.78275 2.08 4.68497 0.737777 6.88941 0.231111C7.52941 0.0800001 8.20496 0 8.8894 0H18.4894C23.2627 0.835554 27.6627 2.78222 31.3516 5.56444C31.4938 5.9111 31.6182 6.27554 31.7071 6.64888C31.8671 7.23554 31.9649 7.83999 31.9916 8.4711C32.0004 8.60443 32.0004 8.74665 32.0004 8.88887Z" fill="#4928F4"/>
<path d="M32.0002 8.88893V12.8089L31.8046 13.4134L31.1379 15.4845L30.4446 17.6178L30.0802 18.7556L29.7424 19.8134L29.4135 20.8178L29.0935 21.8134L28.9246 22.3378L28.7024 23.0311C28.7024 23.7067 28.6846 24.3022 28.6402 24.8089C28.6313 24.8622 28.6224 24.9156 28.6224 24.9689C28.569 25.44 28.4979 25.84 28.3824 26.1778C28.3735 26.2311 28.3557 26.2845 28.3379 26.3289C28.1068 26.9689 27.7602 27.3778 27.2446 27.6445C27.1202 27.7156 26.9779 27.7689 26.8268 27.8222C26.3557 27.9822 25.7602 28.0622 25.0313 28.1067C24.498 28.1422 23.8846 28.1511 23.1913 28.1511H22.578L21.5202 28.1067L21.3335 28.0978L19.4046 28.0178L17.4491 27.9378L11.0047 27.6711L9.33356 27.6H9.10245C8.40912 27.5911 7.81356 27.5467 7.29801 27.4756C6.55135 27.36 5.97357 27.1645 5.53802 26.8711C4.9158 26.4711 4.55135 25.8845 4.33802 25.0667C4.28469 24.8711 4.24024 24.6667 4.21358 24.4445C4.12469 23.9289 4.08024 23.3333 4.05358 22.6667C4.05358 22.5333 4.05358 22.4 4.04469 22.2578C4.0358 22.2489 4.04469 22.2489 4.04469 22.2489V21.7334C4.0358 21.4756 4.0358 21.2089 4.0358 20.9334L4.08024 19.5022L4.10691 18.48L4.14247 17.2889V17.12L4.20469 14.9334L4.26691 12.7467L4.32913 10.6934L4.38246 8.6756L4.40024 8.14226C4.40024 7.86671 3.46691 7.70671 2.42691 7.57338C1.60025 7.46671 0.693588 7.36893 0.151367 7.24449C0.195811 7.04004 0.240256 6.8356 0.293589 6.64004C0.453588 6.00004 0.693587 5.3956 0.995809 4.81782C1.15581 4.50671 1.34247 4.1956 1.53803 3.90227C3.45802 3.05783 5.45802 2.40005 7.5469 1.97338C9.378 1.59116 11.2891 1.38672 13.2624 1.38672C19.8046 1.38672 25.8491 3.60005 30.6313 7.33338C31.0935 7.68893 31.5468 8.07115 31.9913 8.47115C32.0002 8.60448 32.0002 8.74671 32.0002 8.88893Z" fill="#6200EA"/>
<path d="M31.9999 10.9954V15.0309L31.511 15.9732L30.5777 17.7954L30.0799 18.7554L29.6266 19.6354L29.431 20.0176C29.431 20.2932 29.431 20.5598 29.4132 20.8176C29.4132 21.1998 29.3955 21.5643 29.3688 21.902C29.3332 22.302 29.2799 22.6665 29.2266 23.0043C29.0932 23.7065 28.9066 24.3109 28.6399 24.8087C28.6044 24.8709 28.5688 24.9331 28.5332 24.9865C28.4355 25.1465 28.3199 25.2976 28.1955 25.4398C28.0355 25.6354 27.8577 25.8043 27.6532 25.9465C27.351 26.1776 26.9955 26.3643 26.5866 26.5065C26.0799 26.6931 25.4933 26.8176 24.7999 26.8887C24.3466 26.9331 23.8488 26.9598 23.3066 26.9598L22.9333 26.9776L21.0844 27.0843H21.0755L19.111 27.1998L17.1111 27.3154L14.3555 27.4754L11.0044 27.6709L10.5155 27.6976C10.0622 27.6976 9.63552 27.6709 9.22664 27.6176C9.18219 27.6087 9.14664 27.5998 9.10219 27.5998C8.49775 27.502 7.94664 27.342 7.44886 27.1198C6.84442 26.8531 6.31998 26.4976 5.87554 26.0709C5.48443 25.6887 5.14665 25.2531 4.87109 24.7643C4.80887 24.6487 4.74665 24.542 4.69332 24.4176C4.42665 23.8931 4.21332 23.3065 4.05332 22.6665C4.02665 22.5598 3.99999 22.4443 3.98221 22.3287C3.92888 22.1243 3.88443 21.9109 3.85777 21.6887C3.75999 21.1198 3.70665 20.5154 3.67999 19.8843V19.8754C3.6711 19.6176 3.66221 19.3687 3.66221 19.102L3.22666 18.062L3.16443 17.902L3.1111 17.7687L2.44444 16.1776L2.33777 15.9198L1.69777 14.3821L0.986664 12.6665C0.986664 12.6665 0.986663 12.6665 0.977775 12.6665L0.257777 10.9332L0 10.3021V8.88873C0 8.32873 0.0533332 7.77762 0.151111 7.24429C0.195555 7.03984 0.239999 6.8354 0.293332 6.63985C1.04889 6.20429 1.83999 5.80429 2.64888 5.44874C4.49776 4.62207 6.47998 4.00874 8.53331 3.63541C10.0622 3.35985 11.6533 3.20874 13.2622 3.20874C19.7599 3.20874 25.6532 5.56429 30.2577 9.40429C30.4355 9.54651 30.6043 9.68873 30.7732 9.83984C31.191 10.2043 31.5999 10.5865 31.9999 10.9954Z" fill="#673AB7"/>
<path d="M31.9999 13.6445V18.2134L31.4932 19.2711L30.5332 21.2711L30.5243 21.2978C30.5243 21.68 30.5066 22.0267 30.4799 22.3378C30.391 23.36 30.1421 24.0089 29.7332 24.4089C29.4399 24.7111 29.0755 24.88 28.6221 24.9689C28.5955 24.9778 28.5599 24.9778 28.5332 24.9867C28.391 25.0133 28.2399 25.0311 28.0799 25.0311C27.5288 25.0844 26.8799 25.0489 26.1332 24.9956C26.0532 24.9956 25.9644 24.9867 25.8755 24.9778C25.3333 24.9422 24.7555 24.9067 24.1155 24.88C23.7688 24.8711 23.4044 24.8622 23.031 24.8622H23.0133L22.1155 24.9333H22.1066L20.0888 25.0756L17.7866 25.2533L17.4488 25.28L14.7555 25.4756L13.36 25.5822L11.9822 25.68C11.7422 25.68 11.5111 25.68 11.28 25.6711C11.28 25.6711 11.2711 25.6622 11.2711 25.6711C10.2666 25.6533 9.36886 25.5911 8.56886 25.44C7.83109 25.3156 7.1822 25.12 6.63109 24.8267C6.0622 24.5511 5.59109 24.16 5.20887 23.6622C4.84443 23.1733 4.57776 22.56 4.40887 21.8222C4.40887 21.8133 4.40887 21.8133 4.40887 21.8133C4.28443 21.2178 4.21332 20.5245 4.21332 19.7422L4.07999 19.5022L3.28888 18.0889L3.17332 17.8934L3.1111 17.7689L2.28444 16.3022L1.87555 15.5645L1.36 14.6489L0.47111 13.0578L0 12.2222V8.95114C0.78222 8.43559 1.59111 7.98226 2.42666 7.57337C3.43999 7.05781 4.48887 6.62226 5.5822 6.2667C6.77331 5.87559 8.01775 5.56448 9.28886 5.36004C10.5777 5.14671 11.9022 5.04004 13.2622 5.04004C19.3066 5.04004 24.8533 7.20003 29.1288 10.7911C29.3243 10.9423 29.511 11.1111 29.6977 11.2711C30.4443 11.9378 31.1555 12.6578 31.8043 13.4134C31.8755 13.4934 31.9466 13.5645 31.9999 13.6445Z" fill="#8E24AA"/>
<path d="M31.9999 16.6312V23.0578C31.7866 22.9334 31.4932 22.7823 31.1288 22.6223C30.9332 22.5245 30.711 22.4267 30.4799 22.3378C30.1421 22.1867 29.7777 22.0445 29.3688 21.9023C29.2799 21.8667 29.191 21.8401 29.0932 21.8134C28.9332 21.7512 28.7643 21.6978 28.5955 21.6445C28.071 21.4845 27.4932 21.3334 26.8888 21.2001C26.6577 21.1556 26.4177 21.1112 26.1777 21.0756C25.4044 20.9423 24.5777 20.8623 23.7155 20.8534C23.6444 20.8445 23.5644 20.8445 23.4933 20.8445L21.2088 20.8623L18.0977 20.8801H18.0888L11.4311 20.9334C9.31553 20.9334 8.01775 21.4401 7.23553 21.6445C7.23553 21.6445 7.22664 21.6445 7.22664 21.6534C6.39998 21.8667 6.1422 21.7334 6.07109 20.2845C6.05331 19.8845 6.04443 19.3689 6.04443 18.7378L5.54665 18.3556L4.67554 17.6978L4.14221 17.289L4.03554 17.209L2.55999 16.089L2.33777 15.9201L1.87555 15.5645L1.02222 14.9245L0 14.1423V11.1201C0.0888886 11.049 0.168888 10.9867 0.257777 10.9334C1.54666 10.0445 2.92444 9.28897 4.38221 8.67563C5.67998 8.12452 7.04887 7.68897 8.45331 7.37786C8.83553 7.29786 9.22664 7.21786 9.62663 7.16453C10.8089 6.96008 12.0266 6.8623 13.2622 6.8623C18.6044 6.8623 23.511 8.72008 27.4044 11.7956C27.991 12.2579 28.5599 12.7467 29.0932 13.2712C29.8221 13.9645 30.5066 14.7023 31.1377 15.4845C31.2621 15.6445 31.3866 15.8045 31.511 15.9734C31.6799 16.1867 31.8399 16.409 31.9999 16.6312Z" fill="#C2185B"/>
<path d="M31.9999 20.1953V23.1109C31.9999 23.6886 31.9466 24.2575 31.8399 24.8086C31.6799 25.6264 31.4043 26.4086 31.031 27.1375C30.8355 27.182 30.6132 27.182 30.3643 27.1464C29.8043 27.0486 29.1466 26.7553 28.4355 26.3731C28.3999 26.3642 28.3644 26.3464 28.3377 26.3286C28.1155 26.2131 27.8844 26.0886 27.6532 25.9464C27.1821 25.6886 26.6844 25.4042 26.1866 25.1375C26.0799 25.0842 25.9732 25.0309 25.8755 24.9775C25.3066 24.6842 24.7199 24.4175 24.1333 24.2131C24.1333 24.2131 24.1333 24.2131 24.1244 24.2131C23.9999 24.1686 23.8666 24.1242 23.7333 24.0886C23.2266 23.9464 22.711 23.8575 22.2133 23.8575L21.2355 23.5731L16.9066 22.3198C16.9066 22.3198 16.9066 22.3198 16.8977 22.3198L14.24 21.5464H14.2311L13.0755 21.2087C9.7333 21.2087 7.67998 22.6309 6.68442 22.0886C6.29331 21.8842 6.0622 21.3686 5.9822 20.3553C5.95554 20.0709 5.94665 19.7509 5.94665 19.3775L4.90665 18.8709L4.86221 18.8531H4.85332L4.10665 18.4798L3.28888 18.0887L3.22666 18.062L3.07555 17.982L1.33333 17.1375L0 16.4887V13.4398C0.151111 13.3064 0.31111 13.182 0.47111 13.0576C0.639998 12.9242 0.808886 12.7998 0.977775 12.6664C0.986663 12.6664 0.986664 12.6664 0.986664 12.6664C2.03555 11.9109 3.14666 11.2442 4.32887 10.6931C5.70665 10.0353 7.17331 9.52867 8.69331 9.19978C8.91553 9.14645 9.14664 9.09312 9.37775 9.05756C10.64 8.81756 11.9377 8.69312 13.2622 8.69312C17.9466 8.69312 22.2488 10.2131 25.7155 12.7731C26.7199 13.5198 27.6532 14.3464 28.5066 15.2442C29.2088 15.982 29.8577 16.782 30.4443 17.6175C30.4888 17.6798 30.5332 17.742 30.5777 17.7953C30.9066 18.2753 31.2088 18.7642 31.4932 19.2709C31.6799 19.5731 31.8399 19.8842 31.9999 20.1953Z" fill="#D81B60"/>
<path d="M31.8399 24.8089C31.6799 25.6267 31.4043 26.4089 31.031 27.1378C30.8621 27.4667 30.6755 27.7778 30.471 28.08C30.3466 28.2667 30.2132 28.4445 30.0799 28.6134C29.7599 28.4889 29.2888 28.3112 28.711 28.1156C28.711 28.1156 28.711 28.1156 28.711 28.1067C28.2755 27.9556 27.7777 27.7956 27.2444 27.6445C27.0932 27.6 26.9421 27.5556 26.7821 27.5112C26.151 27.3423 25.4932 27.1912 24.8533 27.1023C24.3199 27.0134 23.7955 26.96 23.3066 26.96L22.8977 26.8445H22.8888L20.7377 26.2223L19.4133 25.84L17.9377 25.4134H17.9288L17.4488 25.28L11.6444 23.6089L9.9733 23.1289L8.72886 22.8356L6.7022 22.3556L6.45331 22.2934C6.45331 22.2934 6.45331 22.2934 6.44442 22.2934L4.40887 21.8223C4.40887 21.8134 4.40887 21.8134 4.40887 21.8134L4.04443 21.7334L3.85777 21.6889L2.37333 21.3423L2.20444 21.2978L0.942219 20.2578L0 19.4667V15.8401C0.328888 15.5201 0.666665 15.2178 1.02222 14.9245C1.12889 14.8267 1.24444 14.7378 1.36 14.649C1.46666 14.5601 1.58222 14.4712 1.69777 14.3823C2.50666 13.769 3.35999 13.2178 4.26665 12.7467C5.4222 12.1245 6.64887 11.6267 7.93775 11.2712C8.18664 11.1912 8.43553 11.1201 8.69331 11.0667C10.1511 10.7023 11.68 10.5156 13.2622 10.5156C17.2355 10.5156 20.9333 11.7156 23.991 13.769C25.511 14.7912 26.8799 16.0178 28.0355 17.4134C28.6221 18.1156 29.1555 18.8534 29.6266 19.6356C29.671 19.6978 29.7066 19.7512 29.7421 19.8134C30.0266 20.2845 30.2932 20.7734 30.5332 21.2712C30.7555 21.7156 30.951 22.1601 31.1288 22.6223C31.4132 23.3334 31.6443 24.0623 31.8399 24.8089Z" fill="#F50057"/>
<path d="M30.471 28.08C30.3466 28.2667 30.2132 28.4444 30.0799 28.6133C29.6888 29.1022 29.2621 29.5467 28.7821 29.9378C28.3644 30.2844 27.9199 30.5955 27.4488 30.8622C27.271 30.8178 27.0932 30.7644 26.9066 30.6933C26.3199 30.4889 25.7066 30.1511 25.1377 29.7955C24.2844 29.2533 23.5466 28.6667 23.2177 28.4C23.0933 28.2933 23.031 28.24 23.031 28.24L21.5199 28.1067L21.3333 28.0889L19.3777 27.92L17.3511 27.7422L14.3555 27.4755L9.60886 27.0578L9.59108 27.0489L7.91997 26.24L6.23109 25.4222L4.87109 24.7644L4.57776 24.6222L4.21332 24.4444L2.9511 23.8311L1.27111 23.0222L0.746664 22.7644L0 22.5333V18.56C0.417776 18.0622 0.862219 17.5911 1.33333 17.1378C1.63555 16.8533 1.95555 16.5689 2.28444 16.3022C2.33777 16.2578 2.3911 16.2133 2.44444 16.1778C2.47999 16.1333 2.52444 16.1067 2.55999 16.0889C3.08443 15.6622 3.63554 15.28 4.20443 14.9333C4.86221 14.5156 5.55554 14.1422 6.27554 13.8311C7.04887 13.4845 7.85775 13.1911 8.69331 12.9689C10.1422 12.56 11.68 12.3467 13.2622 12.3467C16.8888 12.3467 20.2399 13.4489 23.0044 15.3422C24.7733 16.5511 26.3021 18.08 27.511 19.8489C27.911 20.4178 28.2666 21.0222 28.5955 21.6444C28.711 21.8756 28.8266 22.1067 28.9244 22.3378C29.031 22.56 29.1288 22.7822 29.2266 23.0044C29.4132 23.4667 29.5821 23.9289 29.7332 24.4089C30.0177 25.2978 30.231 26.2044 30.3643 27.1467C30.4088 27.4578 30.4443 27.7689 30.471 28.08Z" fill="#FF1744"/>
<path d="M28.791 29.7065C28.791 29.7776 28.791 29.8576 28.7821 29.9376C28.3644 30.2842 27.9199 30.5953 27.4488 30.862C27.2532 30.9687 27.0577 31.0753 26.8532 31.1642C26.6488 31.262 26.4444 31.3509 26.231 31.4309C25.9288 31.2709 25.5199 31.0753 25.0844 30.8887C24.471 30.6131 23.8044 30.3642 23.2888 30.2842C23.1644 30.2576 23.0488 30.2487 22.9421 30.2487L21.4844 30.062H21.4666L19.6533 29.822L17.8222 29.582L16.9688 29.4753L10.2489 28.6042C9.8133 28.6042 9.35108 28.5776 8.87108 28.5153C8.28442 28.462 7.67109 28.3731 7.05775 28.2487C6.45331 28.142 5.83998 27.9998 5.25332 27.8487C4.63998 27.7065 4.03554 27.5376 3.47554 27.3776C2.82666 27.182 2.22221 26.9953 1.71555 26.8265C1.29777 26.6931 0.942219 26.5687 0.666664 26.4709C0.506665 26.0887 0.373332 25.6887 0.275555 25.2798C0.0888886 24.5865 0 23.8576 0 23.1109V21.6265C0.284443 21.1554 0.595554 20.6931 0.942219 20.2576C1.57333 19.422 2.29333 18.6576 3.07555 17.982C3.10221 17.9465 3.13777 17.9198 3.16443 17.902L3.17332 17.8931C3.44888 17.6442 3.73332 17.422 4.03554 17.2087C4.0711 17.1731 4.10665 17.1465 4.14221 17.1198C4.28443 17.0131 4.43554 16.9065 4.59554 16.8087C5.86665 15.9465 7.27109 15.2709 8.7733 14.8176C10.1955 14.3909 11.6977 14.1687 13.2622 14.1687C16.3644 14.1687 19.2622 15.0843 21.6799 16.6487C23.4666 17.7954 25.0044 19.3065 26.1777 21.0754C26.3199 21.2798 26.4532 21.4842 26.5866 21.6976C27.1999 22.7376 27.7066 23.8576 28.0799 25.0309C28.1244 25.1642 28.1599 25.2976 28.1955 25.4398C28.2666 25.6798 28.3288 25.9287 28.3821 26.1776C28.3999 26.2398 28.4177 26.302 28.4355 26.3731C28.5599 26.9331 28.6488 27.5198 28.711 28.1065C28.711 28.1153 28.711 28.1153 28.711 28.1153C28.7643 28.6398 28.791 29.1731 28.791 29.7065Z" fill="#FF5722"/>
<path d="M26.9597 29.7066C26.9597 30.0178 26.942 30.3555 26.9064 30.6933C26.8886 30.8533 26.8709 31.0133 26.8531 31.1644C26.6486 31.2622 26.4442 31.3511 26.2309 31.4311C25.8309 31.5822 25.422 31.7066 25.0042 31.7955C24.7198 31.8578 24.4264 31.9111 24.1331 31.9378H24.1242C23.8486 31.7689 23.5286 31.5644 23.1998 31.3333C22.6042 30.9155 21.982 30.4444 21.4842 30.0622C21.4753 30.0533 21.4753 30.0533 21.4664 30.0444C20.942 29.6444 20.5687 29.3422 20.5687 29.3422L19.6264 29.3778L17.8131 29.44L16.9687 29.4755L13.5731 29.6L10.702 29.7066C10.5154 29.7155 10.2931 29.7155 10.0176 29.7066H10.0087C9.63536 29.6978 9.19092 29.6711 8.70203 29.6266C8.13314 29.5822 7.51092 29.5289 6.87981 29.4666C6.26648 29.3955 5.64426 29.3244 5.04871 29.2533C4.39093 29.1822 3.76871 29.1022 3.23538 29.0311C2.8176 28.9778 2.45316 28.9333 2.15983 28.8978C1.91094 28.6133 1.68872 28.32 1.47539 28C1.15539 27.52 0.879833 27.0133 0.666501 26.4711C0.506501 26.0889 0.373168 25.6889 0.275391 25.28C0.533168 24.4889 0.870944 23.7422 1.27094 23.0222C1.59094 22.4355 1.96427 21.8755 2.37316 21.3422C2.77316 20.8178 3.20871 20.3289 3.67982 19.8844V19.8755C3.81316 19.7422 3.94649 19.6178 4.07982 19.5022C4.32871 19.2711 4.58649 19.0578 4.85315 18.8533H4.86204C4.87093 18.8355 4.87982 18.8356 4.88871 18.8267C5.10204 18.6578 5.32426 18.5067 5.54648 18.3556C6.86204 17.4578 8.34648 16.7911 9.94647 16.4C11.0042 16.1422 12.1154 16 13.262 16C15.5198 16 17.6531 16.5422 19.5287 17.52H19.5375C21.1464 18.3467 22.5687 19.4844 23.7153 20.8533C24.3464 21.5822 24.8886 22.3822 25.3331 23.2267C25.6442 23.7955 25.9109 24.3911 26.1331 24.9955C26.1509 25.0489 26.1686 25.0933 26.1864 25.1378C26.3375 25.5822 26.4709 26.0444 26.5864 26.5066C26.6664 26.8355 26.7286 27.1733 26.782 27.5111C26.7997 27.6178 26.8175 27.7155 26.8264 27.8222C26.9153 28.4355 26.9597 29.0666 26.9597 29.7066Z" fill="#FF6F00"/>
<path d="M25.1377 29.7066V29.7955C25.1377 30.0977 25.1111 30.4799 25.0844 30.8888C25.0577 31.191 25.0311 31.5021 25.0044 31.7955C24.72 31.8577 24.4266 31.911 24.1333 31.9377H24.1244C23.7866 31.9821 23.4577 31.9999 23.1111 31.9999H21.5555L21.2177 31.9021L19.4666 31.3688L17.6889 30.8355L13.5733 29.5999L11.7956 29.0666C11.7956 29.0666 11.0578 29.3599 10.0178 29.7066H10.0089C9.60889 29.8399 9.17334 29.9821 8.71112 30.1244C8.13334 30.2933 7.52001 30.4621 6.91557 30.5955C6.29335 30.7377 5.68002 30.8444 5.12891 30.8888C4.96002 30.9066 4.79113 30.9155 4.64002 30.9155C4.14224 30.6399 3.66225 30.311 3.22669 29.9466C2.84447 29.6266 2.48892 29.2799 2.16003 28.8977C1.91114 28.6133 1.68892 28.3199 1.47559 27.9999C1.53781 27.5999 1.60892 27.2088 1.71559 26.8266C1.98225 25.7688 2.40003 24.7555 2.95114 23.831C3.25336 23.3066 3.59113 22.7999 3.98224 22.3288C3.99113 22.3022 4.0178 22.2755 4.04447 22.2577C4.03558 22.2488 4.04447 22.2488 4.04447 22.2488C4.16002 22.0977 4.28447 21.9555 4.40891 21.8222C4.40891 21.8133 4.40891 21.8133 4.40891 21.8133C4.77335 21.4222 5.14669 21.0488 5.55557 20.7022C5.69779 20.5866 5.83113 20.4711 5.98224 20.3555C6.0089 20.3288 6.03557 20.3111 6.07113 20.2844C8.07112 18.7555 10.5689 17.8311 13.2622 17.8311C16.32 17.8311 19.1022 18.9777 21.2089 20.8622C22.2222 21.7777 23.0844 22.871 23.7333 24.0888C23.7866 24.1777 23.84 24.2755 23.8844 24.3733C23.9644 24.5333 24.0444 24.7022 24.1155 24.8799C24.4088 25.5199 24.64 26.1955 24.8 26.8888C24.8177 26.9599 24.8355 27.031 24.8533 27.1022C24.9244 27.431 24.9866 27.7688 25.0311 28.1066C25.1022 28.631 25.1377 29.1644 25.1377 29.7066Z" fill="#FF9800"/>
<path d="M23.3067 29.7064C23.3067 29.8842 23.2978 30.0797 23.2889 30.2842C23.2711 30.6131 23.2445 30.9686 23.2 31.3331C23.1822 31.5553 23.1467 31.7775 23.1111 31.9997H18.24L17.2978 31.8486L13.6178 31.2619L13.0934 31.1819L11.8934 30.9864C11.369 30.9864 10.2312 31.2175 9.03119 31.4397C8.40008 31.5553 7.76008 31.6797 7.1823 31.7597C7.11119 31.7686 7.04008 31.7775 6.97786 31.7864H6.96897C6.34675 31.6531 5.74231 31.4486 5.17342 31.1819C4.99565 31.1019 4.81787 31.0131 4.64009 30.9153C4.14232 30.6397 3.66232 30.3108 3.22676 29.9464C3.21787 29.8397 3.20898 29.7508 3.20898 29.7064C3.20898 29.4753 3.21787 29.2531 3.23565 29.0308C3.27121 28.4619 3.35121 27.9108 3.47565 27.3775C3.67121 26.5686 3.95565 25.7864 4.33787 25.0664C4.40898 24.9153 4.48898 24.7642 4.57787 24.622C4.61342 24.5508 4.65787 24.4886 4.69342 24.4175C4.85342 24.1597 5.0312 23.9108 5.20898 23.662C5.58231 23.1731 6.00009 22.7108 6.44453 22.2931C6.45342 22.2931 6.45342 22.2931 6.45342 22.2931C6.48897 22.2575 6.52453 22.222 6.56008 22.1953C6.60453 22.1597 6.64008 22.1153 6.68453 22.0886C6.86231 21.9286 7.04008 21.7864 7.22675 21.6531C7.22675 21.6442 7.23564 21.6442 7.23564 21.6442C8.91563 20.3909 10.9956 19.6531 13.2623 19.6531C15.0223 19.6531 16.6578 20.0975 18.0889 20.8797H18.0978C19.3245 21.5553 20.3911 22.4708 21.2356 23.5731C21.5645 23.9997 21.8578 24.4531 22.1067 24.9331H22.1156C22.16 25.022 22.2045 25.1108 22.2489 25.1997C22.5156 25.7242 22.7289 26.2753 22.8889 26.8442H22.8978C22.9067 26.8886 22.9245 26.9331 22.9334 26.9775C23.04 27.3597 23.1289 27.7508 23.1911 28.1508C23.2 28.2308 23.2089 28.3197 23.2178 28.3997C23.28 28.8264 23.3067 29.2619 23.3067 29.7064Z" fill="#FFC107"/>
<path d="M21.4844 29.6088C21.4844 29.751 21.4844 29.9021 21.4667 30.0444V30.0533C21.4667 30.0621 21.4667 30.0621 21.4667 30.0621C21.4489 30.7021 21.36 31.3332 21.2178 31.9021C21.2178 31.9377 21.2089 31.9644 21.1911 31.9999H17.04L13.6178 31.2621L13.1645 31.1644L13.0933 31.1821L9.2978 31.9644L9.12892 31.9999H8.88892C8.32003 31.9999 7.76003 31.9466 7.21781 31.8399C7.13781 31.8221 7.05781 31.8044 6.97781 31.7866H6.96892C6.3467 31.6532 5.74226 31.4488 5.17337 31.1821C5.15559 31.0844 5.13782 30.9866 5.12893 30.8888C5.06671 30.5066 5.04004 30.1066 5.04004 29.7066C5.04004 29.5555 5.04004 29.4044 5.04893 29.2533C5.07559 28.7733 5.14671 28.3021 5.25337 27.8488C5.32448 27.511 5.42226 27.1821 5.53781 26.871C5.63559 26.5955 5.75115 26.3288 5.87559 26.071C5.98226 25.8488 6.1067 25.6355 6.23115 25.4221C6.35559 25.2177 6.48892 25.0221 6.63115 24.8266C6.9867 24.3377 7.40448 23.8844 7.8667 23.4844C8.13336 23.2533 8.42669 23.031 8.72892 22.8355C10.0267 21.9822 11.5822 21.4844 13.2622 21.4844C13.5911 21.4844 13.9111 21.5022 14.2222 21.5466H14.24C15.1911 21.6533 16.08 21.9199 16.8978 22.3199C16.9067 22.3199 16.9067 22.3199 16.9067 22.3199C18.1956 22.951 19.2889 23.9021 20.0889 25.0755C20.2222 25.271 20.3555 25.4844 20.4711 25.6977C20.5689 25.8666 20.6578 26.0444 20.7378 26.2221C20.8622 26.4977 20.9778 26.791 21.0755 27.0844H21.0844C21.1822 27.4133 21.2711 27.7421 21.3333 28.0888V28.0977C21.4311 28.5866 21.4844 29.0933 21.4844 29.6088Z" fill="#FFD54F"/>
<path d="M19.6534 29.7953V29.8219C19.6534 30.3464 19.5912 30.8619 19.4667 31.3686C19.4223 31.5819 19.36 31.7952 19.28 31.9997H15.2978L13.2623 31.4397L11.2267 31.9997H8.88896C8.32008 31.9997 7.76008 31.9464 7.21786 31.8397C7.20008 31.813 7.19119 31.7864 7.1823 31.7597C7.05786 31.3775 6.96008 30.9952 6.91564 30.5953C6.88008 30.3375 6.8623 30.0708 6.8623 29.7953C6.8623 29.6886 6.8623 29.573 6.88008 29.4664C6.88897 29.0486 6.95119 28.6397 7.05786 28.2486C7.11119 27.9819 7.19119 27.7241 7.29786 27.4753C7.33341 27.3508 7.38675 27.2353 7.44897 27.1197C7.5823 26.8175 7.7423 26.5241 7.92008 26.2397C8.11563 25.9553 8.32897 25.6886 8.56897 25.4397C8.85341 25.1197 9.17341 24.8264 9.53785 24.5864C10.1601 24.133 10.8712 23.7953 11.6445 23.6086C12.1601 23.4664 12.7023 23.3953 13.2623 23.3953C15.0401 23.3953 16.6312 24.1064 17.7867 25.253C17.8312 25.2975 17.8845 25.3508 17.9289 25.413H17.9378C18.0623 25.5464 18.1778 25.6797 18.2934 25.8308C18.6223 26.2486 18.8978 26.7019 19.1112 27.1997C19.2178 27.4308 19.3067 27.6708 19.3778 27.9197C19.3867 27.9553 19.3956 27.9819 19.4045 28.0175C19.5289 28.453 19.6089 28.9064 19.6267 29.3775C19.6445 29.5108 19.6534 29.653 19.6534 29.7953Z" fill="#FFE082"/>
<path d="M17.8311 29.7954C17.8311 30.1599 17.7867 30.5066 17.6889 30.8354C17.6 31.191 17.4667 31.5288 17.2978 31.8488C17.2711 31.9021 17.2089 31.9999 17.2089 31.9999H9.31558C9.30669 31.991 9.2978 31.9732 9.2978 31.9643C9.19113 31.7954 9.10225 31.6265 9.03114 31.4399C8.85336 31.031 8.74669 30.5866 8.71114 30.1243C8.69336 30.0177 8.69336 29.9021 8.69336 29.7954C8.69336 29.7421 8.69336 29.6799 8.70225 29.6266C8.71114 29.2354 8.76447 28.8621 8.87114 28.5154C8.96003 28.1954 9.07558 27.9021 9.22669 27.6177C9.22669 27.6177 9.23558 27.6088 9.23558 27.5999C9.34225 27.4132 9.4578 27.2266 9.59114 27.0488C10.0267 26.4621 10.6045 25.9821 11.2711 25.671C11.28 25.671 11.28 25.671 11.28 25.671C11.4934 25.5643 11.7156 25.4755 11.9467 25.4132C11.9467 25.4132 11.9467 25.4132 11.9556 25.4132C12.3645 25.2888 12.8089 25.2266 13.2622 25.2266C13.7867 25.2266 14.2933 25.3066 14.7556 25.4754C14.9245 25.5199 15.0844 25.591 15.2444 25.671C15.2444 25.671 15.2444 25.671 15.2533 25.671C16.0178 26.0354 16.6667 26.6043 17.1111 27.3154C17.2 27.4488 17.28 27.591 17.3511 27.7421C17.3867 27.8043 17.4222 27.8754 17.4489 27.9377C17.6533 28.3999 17.7778 28.9066 17.8133 29.4399C17.8222 29.4843 17.8222 29.5288 17.8222 29.5821C17.8311 29.6532 17.8311 29.7243 17.8311 29.7954Z" fill="#FFECB3"/>
<path d="M21.3332 4.44434H10.6665C7.19988 4.44434 4.44434 7.19989 4.44434 10.6665V21.3332C4.44434 24.7999 7.19988 27.5554 10.6665 27.5554H21.3332C24.7998 27.5554 27.5554 24.7999 27.5554 21.3332V10.6665C27.5554 7.19989 24.7998 4.44434 21.3332 4.44434Z" stroke="white" stroke-width="2" stroke-miterlimit="10" stroke-linecap="round" stroke-linejoin="round"/>
<path d="M22.2219 9.77777C22.7128 9.77777 23.1108 9.37981 23.1108 8.88889C23.1108 8.39797 22.7128 8 22.2219 8C21.731 8 21.333 8.39797 21.333 8.88889C21.333 9.37981 21.731 9.77777 22.2219 9.77777Z" fill="white"/>
<path d="M16.0003 21.3336C18.9458 21.3336 21.3336 18.9458 21.3336 16.0003C21.3336 13.0548 18.9458 10.667 16.0003 10.667C13.0548 10.667 10.667 13.0548 10.667 16.0003C10.667 18.9458 13.0548 21.3336 16.0003 21.3336Z" stroke="white" stroke-width="2" stroke-miterlimit="10" stroke-linecap="round" stroke-linejoin="round"/>
</svg>
