<svg width="25" height="24" viewBox="0 0 25 24" fill="currentColor" xmlns="http://www.w3.org/2000/svg">
<mask id="mask0_44_5171" style="mask-type:alpha" maskUnits="userSpaceOnUse" x="0" y="0" width="25" height="24">
<rect x="0.9375" width="24" height="24" />
</mask>
<g mask="url(#mask0_44_5171)">
<path d="M17.4144 12.4808L12.4759 7.54225L17.4144 2.604L22.3526 7.54225L17.4144 12.4808ZM4.74512 10.8078V3.80775H11.7451V10.8078H4.74512ZM14.1296 20.1923V13.1923H21.1296V20.1923H14.1296ZM4.74512 20.1923V13.1923H11.7451V20.1923H4.74512ZM6.24512 9.30775H10.2451V5.30775H6.24512V9.30775ZM17.4394 10.3923L20.2644 7.56725L17.4394 4.74225L14.6144 7.56725L17.4394 10.3923ZM15.6296 18.6923H19.6296V14.6923H15.6296V18.6923ZM6.24512 18.6923H10.2451V14.6923H6.24512V18.6923Z" />
</g>
</svg>
