<svg width="32" height="32" viewBox="0 0 32 32" fill="none" xmlns="http://www.w3.org/2000/svg">
<path d="M32 27.5556C32 30.0107 30.0107 32 27.5556 32H4.44444C1.99022 32 0 30.0107 0 27.5556V4.44444C0 1.98933 1.99022 0 4.44444 0H27.5556C30.0107 0 32 1.98933 32 4.44444V27.5556Z" fill="#0288D1"/>
<path d="M5.33301 11.5555H9.77745V26.6666H5.33301V11.5555ZM7.5419 9.7777H7.51701C6.19079 9.7777 5.33301 8.78925 5.33301 7.55458C5.33301 6.29325 6.21745 5.33325 7.56767 5.33325C8.91967 5.33325 9.75256 6.29325 9.77745 7.55458C9.77745 8.78836 8.91967 9.7777 7.5419 9.7777ZM26.6663 26.6666H22.2219V18.5786C22.2219 16.6248 21.133 15.2915 19.3846 15.2915C18.0503 15.2915 17.3286 16.191 16.9783 17.0604C16.8503 17.3715 16.8886 18.2319 16.8886 18.6666V26.6666H12.4441V11.5555H16.8886V13.8808C17.5295 12.8888 18.533 11.5555 21.1001 11.5555C24.2806 11.5555 26.6655 13.5555 26.6655 18.0213L26.6663 26.6666Z" fill="white"/>
</svg>
