<svg width="24" height="24" viewBox="0 0 24 24" fill="none" xmlns="http://www.w3.org/2000/svg">
<mask id="mask0_44_5145" style="mask-type:alpha" maskUnits="userSpaceOnUse" x="0" y="0" width="24" height="24">
<rect width="24" height="24" fill="#D9D9D9"/>
</mask>
<g mask="url(#mask0_44_5145)">
<path d="M11.25 15.8077H12.75V12.75H15.8077V11.25H12.75V8.19225H11.25V11.25H8.19225V12.75H11.25V15.8077ZM12 21.5C11.759 21.5 11.5288 21.4573 11.3095 21.372C11.0903 21.2868 10.8923 21.1538 10.7155 20.973L3.05775 13.3C2.88725 13.1128 2.75167 12.9097 2.651 12.6905C2.55033 12.4712 2.5 12.241 2.5 12C2.5 11.7653 2.55033 11.5368 2.651 11.3145C2.75167 11.092 2.88725 10.8955 3.05775 10.725L10.7155 3.052C10.9027 2.86483 11.1033 2.726 11.3173 2.6355C11.5314 2.54517 11.759 2.5 12 2.5C12.2347 2.5 12.4658 2.54517 12.6933 2.6355C12.9208 2.726 13.1198 2.86483 13.2902 3.052L20.9328 10.725C21.1096 10.9058 21.2483 11.1048 21.349 11.322C21.4497 11.5393 21.5 11.7653 21.5 12C21.5 12.241 21.4523 12.4712 21.3568 12.6905C21.2612 12.9097 21.1199 13.1128 20.9328 13.3L13.2902 20.973C13.1198 21.1435 12.9208 21.274 12.6933 21.3645C12.4658 21.4548 12.2347 21.5 12 21.5ZM12.2308 19.9038L19.8788 12.2405C19.9366 12.1827 19.9655 12.1041 19.9655 12.0048C19.9655 11.9054 19.9366 11.8269 19.8788 11.7692L12.2308 4.10575C12.1731 4.04808 12.0946 4.01925 11.9952 4.01925C11.8959 4.01925 11.8173 4.04808 11.7595 4.10575L4.1115 11.7692C4.06017 11.8269 4.0345 11.9054 4.0345 12.0048C4.0345 12.1041 4.06017 12.1827 4.1115 12.2405L11.7595 19.9038C11.8173 19.9551 11.8959 19.9807 11.9952 19.9807C12.0946 19.9807 12.1731 19.9551 12.2308 19.9038Z" fill="white"/>
</g>
</svg>
