<svg width="24" height="24" viewBox="0 0 24 24" fill="none" xmlns="http://www.w3.org/2000/svg">
<mask id="mask0_46_372" style="mask-type:alpha" maskUnits="userSpaceOnUse" x="0" y="0" width="24" height="24">
<rect width="24" height="24" fill="currentColor"/>
</mask>
<g mask="url(#mask0_46_372)">
<path d="M12 4V2.5H21.5V4H12ZM12 7.69225V6.19225H21.5V7.69225H12ZM12 11.3845V9.8845H21.5V11.3845H12ZM18.4402 21.5C16.5557 21.5 14.6625 21.0618 12.7605 20.1855C10.8587 19.3092 9.11125 18.073 7.51825 16.477C5.92542 14.8808 4.69083 13.1333 3.8145 11.2345C2.93817 9.33583 2.5 7.44425 2.5 5.55975C2.5 5.25692 2.6 5.00458 2.8 4.80275C3 4.60092 3.25 4.5 3.55 4.5H6.8115C7.064 4.5 7.28675 4.58242 7.47975 4.74725C7.67275 4.91192 7.7955 5.11542 7.848 5.35775L8.42125 8.3C8.46092 8.573 8.45258 8.80758 8.39625 9.00375C8.33975 9.19992 8.23842 9.36467 8.09225 9.498L5.78275 11.7463C6.15442 12.4269 6.57908 13.0708 7.05675 13.678C7.53425 14.285 8.05125 14.8648 8.60775 15.4173C9.15642 15.9661 9.73975 16.4757 10.3577 16.9462C10.9757 17.4167 11.6431 17.8546 12.3598 18.2598L14.6038 15.9962C14.7603 15.8334 14.9498 15.7193 15.1723 15.6538C15.3946 15.5884 15.6257 15.5724 15.8655 15.6058L18.6423 16.1712C18.8948 16.2379 19.1008 16.3667 19.2605 16.5577C19.4202 16.7487 19.5 16.9654 19.5 17.2078V20.45C19.5 20.75 19.3991 21 19.1973 21.2C18.9954 21.4 18.7431 21.5 18.4402 21.5ZM5.073 10.327L6.85775 8.61925C6.88975 8.59358 6.91058 8.55833 6.92025 8.5135C6.92992 8.46867 6.92833 8.427 6.9155 8.3885L6.48075 6.15375C6.46792 6.10258 6.4455 6.06417 6.4135 6.0385C6.3815 6.01283 6.33983 6 6.2885 6H4.15C4.1115 6 4.07942 6.01283 4.05375 6.0385C4.02825 6.06417 4.0155 6.09625 4.0155 6.13475C4.06667 6.81808 4.1785 7.51225 4.351 8.21725C4.52333 8.92242 4.764 9.62567 5.073 10.327ZM13.773 18.9693C14.4358 19.2783 15.1272 19.5145 15.847 19.678C16.567 19.8413 17.2397 19.9384 17.8652 19.9693C17.9037 19.9693 17.9358 19.9564 17.9615 19.9307C17.9872 19.9051 18 19.873 18 19.8345V17.7308C18 17.6794 17.9872 17.6377 17.9615 17.6058C17.9358 17.5738 17.8974 17.5513 17.8462 17.5385L15.7462 17.1115C15.7077 17.0987 15.6741 17.0971 15.6453 17.1068C15.6164 17.1164 15.5859 17.1373 15.5538 17.1693L13.773 18.9693Z" fill="currentColor"/>
</g>
</svg>
