<svg width="25" height="24" viewBox="0 0 25 24" fill="currentColor" xmlns="http://www.w3.org/2000/svg">
<mask id="mask0_44_4513" style="mask-type:alpha" maskUnits="userSpaceOnUse" x="0" y="0" width="25" height="24">
<rect x="0.0629883" width="24" height="24" />
</mask>
<g mask="url(#mask0_44_4513)">
<path d="M8.31299 17.75H15.813V16.25H8.31299V17.75ZM8.31299 13.75H15.813V12.25H8.31299V13.75ZM6.37074 21.5C5.86557 21.5 5.43799 21.325 5.08799 20.975C4.73799 20.625 4.56299 20.1974 4.56299 19.6923V4.30775C4.56299 3.80258 4.73799 3.375 5.08799 3.025C5.43799 2.675 5.86557 2.5 6.37074 2.5H14.313L19.563 7.75V19.6923C19.563 20.1974 19.388 20.625 19.038 20.975C18.688 21.325 18.2604 21.5 17.7552 21.5H6.37074ZM13.563 8.5V4H6.37074C6.29374 4 6.22324 4.03208 6.15924 4.09625C6.09507 4.16025 6.06299 4.23075 6.06299 4.30775V19.6923C6.06299 19.7693 6.09507 19.8398 6.15924 19.9038C6.22324 19.9679 6.29374 20 6.37074 20H17.7552C17.8322 20 17.9027 19.9679 17.9667 19.9038C18.0309 19.8398 18.063 19.7693 18.063 19.6923V8.5H13.563Z" />
</g>
</svg>
