<svg width="24" height="24" viewBox="0 0 24 24" fill="none" xmlns="http://www.w3.org/2000/svg">
<mask id="mask0_44_4981" style="mask-type:alpha" maskUnits="userSpaceOnUse" x="0" y="0" width="24" height="24">
<rect width="24" height="24" fill="#D9D9D9"/>
</mask>
<g mask="url(#mask0_44_4981)">
<path d="M12.1866 16.9212L20.4944 8.61342C20.5392 8.56858 20.5616 8.51408 20.5616 8.44992C20.5616 8.38575 20.5392 8.33125 20.4944 8.28642L19.5214 7.31342C19.4764 7.26858 19.4219 7.24617 19.3579 7.24617C19.2937 7.24617 19.2392 7.26858 19.1944 7.31342L10.8866 15.6212L12.1866 16.9212ZM5.91163 18.7307C4.42447 18.6473 3.3078 18.3166 2.56163 17.7384C1.81547 17.1603 1.44238 16.3423 1.44238 15.2844C1.44238 14.2718 1.86738 13.4503 2.71738 12.8202C3.56738 12.19 4.7488 11.8083 6.26163 11.6749C6.98863 11.6121 7.53388 11.4807 7.89738 11.2807C8.26072 11.0807 8.44238 10.8038 8.44238 10.4499C8.44238 9.95892 8.19655 9.58425 7.70488 9.32592C7.21322 9.06758 6.40713 8.882 5.28663 8.76917L5.42313 7.27867C6.9603 7.42484 8.0978 7.75625 8.83563 8.27292C9.57347 8.78958 9.94238 9.51525 9.94238 10.4499C9.94238 11.2434 9.63763 11.8726 9.02813 12.3374C8.41847 12.8021 7.53347 13.0813 6.37313 13.1749C5.22963 13.2711 4.37197 13.4942 3.80013 13.8442C3.2283 14.1942 2.94238 14.6743 2.94238 15.2844C2.94238 15.9063 3.18055 16.3688 3.65688 16.6722C4.13322 16.9753 4.9053 17.1615 5.97313 17.2307L5.91163 18.7307ZM12.4211 18.8094L8.99813 15.3864L18.3366 6.05767C18.6315 5.76283 18.976 5.617 19.3704 5.62017C19.7645 5.62333 20.109 5.76917 20.4039 6.05767L21.7501 7.40367C22.045 7.69867 22.1924 8.04483 22.1924 8.44217C22.1924 8.83967 22.045 9.18583 21.7501 9.48067L12.4211 18.8094ZM9.08088 19.4999C8.85522 19.5538 8.65655 19.4948 8.48488 19.3229C8.31305 19.1511 8.25405 18.9524 8.30788 18.7269L8.99813 15.3864L12.4211 18.8094L9.08088 19.4999Z" fill="white"/>
</g>
</svg>
