<svg width="25" height="24" viewBox="0 0 25 24" fill="currentColor" xmlns="http://www.w3.org/2000/svg">
<mask id="mask0_44_4519" style="mask-type:alpha" maskUnits="userSpaceOnUse" x="0" y="0" width="25" height="24">
<rect x="0.437012" width="24" height="24" />
</mask>
<g mask="url(#mask0_44_4519)">
<path d="M12.4373 16.6538C12.6499 16.6538 12.828 16.5818 12.9715 16.438C13.1152 16.2943 13.187 16.1162 13.187 15.9035C13.187 15.6908 13.1151 15.5128 12.9713 15.3693C12.8274 15.2256 12.6493 15.1538 12.4368 15.1538C12.2241 15.1538 12.046 15.2257 11.9025 15.3695C11.7588 15.5133 11.687 15.6916 11.687 15.9043C11.687 16.1167 11.7589 16.2948 11.9028 16.4385C12.0466 16.582 12.2248 16.6538 12.4373 16.6538ZM12.4373 12.75C12.6499 12.75 12.828 12.6781 12.9715 12.5343C13.1152 12.3904 13.187 12.2122 13.187 11.9997C13.187 11.7871 13.1151 11.609 12.9713 11.4655C12.8274 11.3218 12.6493 11.25 12.4368 11.25C12.2241 11.25 12.046 11.3219 11.9025 11.4658C11.7588 11.6096 11.687 11.7878 11.687 12.0003C11.687 12.2129 11.7589 12.391 11.9028 12.5345C12.0466 12.6782 12.2248 12.75 12.4373 12.75ZM12.4373 8.84625C12.6499 8.84625 12.828 8.77433 12.9715 8.6305C13.1152 8.48667 13.187 8.30842 13.187 8.09575C13.187 7.88325 13.1151 7.70517 12.9713 7.5615C12.8274 7.418 12.6493 7.34625 12.4368 7.34625C12.2241 7.34625 12.046 7.41817 11.9025 7.562C11.7588 7.70567 11.687 7.88383 11.687 8.0965C11.687 8.30917 11.7589 8.48725 11.9028 8.63075C12.0466 8.77442 12.2248 8.84625 12.4373 8.84625ZM20.1293 19.5H4.74476C4.2476 19.5 3.82201 19.323 3.46801 18.969C3.11401 18.615 2.93701 18.1894 2.93701 17.6923V14.404C3.50635 14.295 3.98201 14.0157 4.36401 13.5662C4.74601 13.1169 4.93701 12.5948 4.93701 12C4.93701 11.4052 4.74601 10.8831 4.36401 10.4337C3.98201 9.98425 3.50635 9.705 2.93701 9.596V6.30775C2.93701 5.81058 3.11401 5.385 3.46801 5.031C3.82201 4.677 4.2476 4.5 4.74476 4.5H20.1293C20.6264 4.5 21.052 4.677 21.406 5.031C21.76 5.385 21.937 5.81058 21.937 6.30775V9.596C21.3677 9.705 20.892 9.98425 20.51 10.4337C20.128 10.8831 19.937 11.4052 19.937 12C19.937 12.5948 20.128 13.1169 20.51 13.5662C20.892 14.0157 21.3677 14.295 21.937 14.404V17.6923C21.937 18.1894 21.76 18.615 21.406 18.969C21.052 19.323 20.6264 19.5 20.1293 19.5ZM20.1293 18C20.2191 18 20.2928 17.9712 20.3505 17.9135C20.4082 17.8558 20.437 17.7821 20.437 17.6923V15.45C19.8203 15.0833 19.3328 14.5958 18.9745 13.9875C18.6162 13.3792 18.437 12.7167 18.437 12C18.437 11.2833 18.6162 10.6208 18.9745 10.0125C19.3328 9.40417 19.8203 8.91667 20.437 8.55V6.30775C20.437 6.21792 20.4082 6.14417 20.3505 6.0865C20.2928 6.02883 20.2191 6 20.1293 6H4.74476C4.65493 6 4.58118 6.02883 4.52351 6.0865C4.46585 6.14417 4.43701 6.21792 4.43701 6.30775V8.55C5.05368 8.91667 5.54118 9.40417 5.89951 10.0125C6.25785 10.6208 6.43701 11.2833 6.43701 12C6.43701 12.7167 6.25785 13.3792 5.89951 13.9875C5.54118 14.5958 5.05368 15.0833 4.43701 15.45V17.6923C4.43701 17.7821 4.46585 17.8558 4.52351 17.9135C4.58118 17.9712 4.65493 18 4.74476 18H20.1293Z" />
</g>
</svg>
