<svg width="33" height="32" viewBox="0 0 33 32" fill="none" xmlns="http://www.w3.org/2000/svg">
<path fill-rule="evenodd" clip-rule="evenodd" d="M29.0694 32H4.18056C2.217 32 0.625 30.408 0.625 28.4444V3.55556C0.625 1.592 2.217 0 4.18056 0H29.0694C31.033 0 32.625 1.592 32.625 3.55556V28.4444C32.625 30.408 31.033 32 29.0694 32Z" fill="#212121"/>
<path fill-rule="evenodd" clip-rule="evenodd" d="M25.7422 24.8889H20.0204L7.58398 7.11108H13.3058L25.7422 24.8889ZM20.7022 23.3813H22.9804L12.624 8.61864H10.3458L20.7022 23.3813Z" fill="white"/>
<path fill-rule="evenodd" clip-rule="evenodd" d="M9.3951 24.8892L15.7978 17.4723L14.9604 16.3621L7.5791 24.8892H9.3951Z" fill="white"/>
<path fill-rule="evenodd" clip-rule="evenodd" d="M17.0254 13.9742L17.8298 15.12L24.7463 7.11108H22.9685L17.0254 13.9742Z" fill="white"/>
</svg>
